<svg width="40" height="24.28" viewBox="0 0 56 34" fill="none">
<path d="M18.757 3.55542C18.9572 3.36202 19.116 3.13242 19.2244 2.87974C19.3327 2.62705 19.3885 2.35622 19.3885 2.08272C19.3885 1.80921 19.3327 1.53838 19.2244 1.28569C19.116 1.03301 18.9572 0.803411 18.757 0.610013C18.5567 0.416615 18.319 0.263203 18.0574 0.158536C17.7958 0.0538702 17.5154 -2.03778e-09 17.2323 0C16.9491 2.03778e-09 16.6687 0.0538702 16.4071 0.158536C16.1455 0.263203 15.9078 0.416615 15.7075 0.610013L0.632687 15.1706C0.432134 15.3639 0.273017 15.5934 0.164451 15.8461C0.055884 16.0988 0 16.3697 0 16.6433C0 16.9169 0.055884 17.1878 0.164451 17.4406C0.273017 17.6933 0.432134 17.9228 0.632687 18.116L15.7075 32.6767C16.1119 33.0672 16.6604 33.2867 17.2323 33.2867C17.8041 33.2867 18.3526 33.0672 18.757 32.6767C19.1613 32.2861 19.3885 31.7563 19.3885 31.2039C19.3885 30.6516 19.1613 30.1218 18.757 29.7312L5.20252 16.6433L18.757 3.55542ZM37.243 3.55542C36.8387 3.16483 36.6115 2.63509 36.6115 2.08272C36.6115 1.53034 36.8387 1.0006 37.243 0.610013C37.6474 0.219428 38.1959 1.42564e-08 38.7677 0C39.3396 -1.42564e-08 39.8881 0.219428 40.2925 0.610013L55.3673 15.1706C55.5679 15.3639 55.727 15.5934 55.8356 15.8461C55.9441 16.0988 56 16.3697 56 16.6433C56 16.9169 55.9441 17.1878 55.8356 17.4406C55.727 17.6933 55.5679 17.9228 55.3673 18.116L40.2925 32.6767C39.8881 33.0672 39.3396 33.2867 38.7677 33.2867C38.1959 33.2867 37.6474 33.0672 37.243 32.6767C36.8387 32.2861 36.6115 31.7563 36.6115 31.2039C36.6115 30.6516 36.8387 30.1218 37.243 29.7312L50.7975 16.6433L37.243 3.55542Z" fill="url(#paint0_linear_145_1247)"/>
<defs>
<linearGradient id="paint0_linear_145_1247" x1="28" y1="-4.9601e-07" x2="16.6375" y2="38.2314" gradientUnits="userSpaceOnUse">
<stop stop-color="currentColor"/>
<stop offset="1" stop-color="#75D7B6"/>
</linearGradient>
</defs>
</svg>
